# xmcd
#
# Track frame offsets:
#	150
#	14334
#	36240
#	51020
#	71828
#	89336
#	103196
#	120097
#	136422
#	150606
#	172512
#	187292
#	208100
#	225608
#	239468
#	256369
#	284094
#
# Disc length: 3800 seconds
#
# Revision: 1
# Processed by: cddbd v1.5.2PL0 Copyright (c) Steve Scherf et al.
# Submitted via: audiograbber 1.83.01
#
DISCID=f10ed611
DTITLE=Mixed - Country Picks - Vol. 190
DYEAR=1900
DGENRE=
TTITLE0=LeAnn Rimes - Nothin 'Bout Love Makes Sense
TTITLE1=Tim McGraw - Drugs Or Jesus
TTITLE2=Gretchen Wilson - When It Rains
TTITLE3=Big and Rich - Holy Water
TTITLE4=Tim McGraw - My Old Friend
TTITLE5=Alan Jackson - To Do What I Do
TTITLE6=Gary Allan - Nothing On But The Radio
TTITLE7=Shania Twain and Billy Currington - Party For Two (Radio Version)
TTITLE8=LeAnn Rimes - Nothin 'Bout Love Makes Sense
TTITLE9=Tim McGraw - Drugs Or Jesus
TTITLE10=Gretchen Wilson - When It Rains
TTITLE11=Big and Rich - Holy Water
TTITLE12=Tim McGraw - My Old Friend
TTITLE13=Alan Jackson - To Do What I Do
TTITLE14=Gary Allan - Nothing On But The Radio
TTITLE15=Shania Twain and Billy Currington - Party For Two (Radio Version)
TTITLE16=Data - Data Track
EXTD=
EXTT0=
EXTT1=
EXTT2=
EXTT3=
EXTT4=
EXTT5=
EXTT6=
EXTT7=
EXTT8=
EXTT9=
EXTT10=
EXTT11=
EXTT12=
EXTT13=
EXTT14=
EXTT15=
EXTT16=
PLAYORDER=
